<svg xmlns="http://www.w3.org/2000/svg" viewBox="0 0 100 100" fill="none">
  <defs>
    <linearGradient id="mainGradient" x1="0%" y1="0%" x2="100%" y2="100%">
      <stop offset="0%" style="stop-color:#ef4444"/> <!-- Red-500 -->
      <stop offset="100%" style="stop-color:#dc2626"/> <!-- Red-600 -->
    </linearGradient>
    <filter id="shadow" x="-20%" y="-20%" width="140%" height="140%">
      <feDropShadow dx="0" dy="4" stdDeviation="4" flood-color="#0f172a" flood-opacity="0.5"/>
    </filter>
  </defs>
  
  <!-- Main Shield Body -->
  <path d="M50 5 L15 18 C15 18 15 45 15 50 C15 75 50 95 50 95 C50 95 85 75 85 50 C85 45 85 18 85 18 L50 5 Z" 
        fill="url(#mainGradient)" 
        stroke="#1e293b" 
        stroke-width="2"
        filter="url(#shadow)"/>
        
  <!-- Keyhole Cutout -->
  <path d="M50 35 C44.48 35 40 39.48 40 45 C40 49.48 42.96 53.25 47 54.5 L47 65 C47 66.66 48.34 68 50 68 C51.66 68 53 66.66 53 65 L53 54.5 C57.04 53.25 60 49.48 60 45 C60 39.48 55.52 35 50 35 Z" 
        fill="#ffffff"/>
</svg>